<svg width="22" height="20" viewBox="0 0 22 20" fill="none" xmlns="http://www.w3.org/2000/svg">
<path d="M10.3586 3.25694L10.4281 3.32007L10.9788 3.8585L11 3.83931L11.0213 3.85866L11.5756 3.31675L11.6415 3.25685C12.5333 2.44716 13.7299 1.95 15.0507 1.95C17.8322 1.95 20.05 4.14868 20.05 6.81569C20.05 8.08808 19.5492 9.24761 18.7221 10.1181L18.6574 10.1862L11.0001 17.6715L3.42958 10.271L3.42959 10.271L3.42589 10.2674L3.38741 10.2298L3.38742 10.2298L3.38375 10.2262L3.33944 10.1829L3.278 10.1182C2.45084 9.2477 1.95 8.08813 1.95 6.81569C1.95 4.14868 4.16782 1.95 6.94934 1.95C8.2702 1.95 9.46675 2.4472 10.3586 3.25694Z" fill="#EDEDED" stroke="black" stroke-width="1.9"/>
</svg>
