<svg width="11" height="19" viewBox="0 0 12 20" fill="none" xmlns="http://www.w3.org/2000/svg">
<path d="M2.12717 5.06358L0 4.3237C0.83237 1.87283 2.77457 0 5.98844 0C8.99422 0 11.815 1.9422 11.815 5.13295C11.815 7.79191 10.3353 9.24856 8.13873 10.4046C6.72832 11.1676 6.33526 11.6994 6.31214 12.7168V13.8497H4.11561L4.09249 12.5318C4.09249 10.6358 4.73988 9.75723 6.77457 8.71676C8.57803 7.74567 9.47977 6.82081 9.47977 5.13295C9.47977 3.30636 7.97688 2.12717 5.98844 2.12717C3.81503 2.12717 2.79769 3.30636 2.12717 5.06358ZM5.22543 20C4.34682 20 3.65318 19.3064 3.65318 18.4277C3.65318 17.5491 4.34682 16.8324 5.22543 16.8324C6.10405 16.8324 6.82081 17.5491 6.82081 18.4277C6.82081 19.3064 6.10405 20 5.22543 20Z" fill="black"/>
</svg>
