<svg width="204" height="204" viewBox="0 0 204 204" fill="none" xmlns="http://www.w3.org/2000/svg">
<g clip-path="url(#clip0_228_76)">
<rect width="204" height="204" fill="white"/>
<rect width="204" height="204" fill="white"/>
<path d="M102.001 60.1321L101.983 60.149C95.7188 54.4717 87.3255 51 78.1011 51C58.7153 51 43 66.3333 43 85.248C43 94.2482 46.5582 102.437 52.3769 108.55L52.3603 108.566L53.146 109.333C53.2357 109.421 53.3258 109.509 53.4164 109.597L102.001 157L151.641 108.566L151.624 108.549C157.442 102.437 161 94.2478 161 85.248C161 66.3333 145.285 51 125.899 51C116.675 51 108.282 54.4714 102.017 60.1483L102.001 60.1321Z" fill="black"/>
</g>
<defs>
<clipPath id="clip0_228_76">
<rect width="204" height="204" fill="white"/>
</clipPath>
</defs>
</svg>
