<svg width="22" height="20" viewBox="0 0 22 20" fill="none" xmlns="http://www.w3.org/2000/svg">
<path d="M11.0001 1.69583L10.9969 1.69897C9.82893 0.644697 8.26407 0 6.54427 0C2.92997 0 0 2.8474 0 6.35985C0 8.03119 0.663391 9.55194 1.74824 10.687L1.74514 10.69L1.89163 10.8324C1.90835 10.8488 1.92515 10.8651 1.94205 10.8814L11.0001 19.6842L20.2551 10.69L20.2519 10.6869C21.3367 9.55182 22 8.03112 22 6.35985C22 2.8474 19.07 0 15.4557 0C13.736 0 12.1712 0.644645 11.0032 1.69884L11.0001 1.69583Z" fill="black"/>
</svg>
