<svg width="22" height="20" viewBox="0 0 22 20" fill="none" xmlns="http://www.w3.org/2000/svg">
<path d="M11.0001 2.55073L10.9972 2.55361C9.93539 1.58954 8.51279 1 6.94934 1C3.66361 1 1 3.60378 1 6.81569C1 8.34403 1.60308 9.73467 2.58931 10.7726L2.58649 10.7754L2.71967 10.9056C2.73486 10.9206 2.75014 10.9355 2.7655 10.9504L11.0001 19L19.4138 10.7754L19.4108 10.7725C20.397 9.73455 21 8.34397 21 6.81569C21 3.60378 18.3364 1 15.0507 1C13.4873 1 12.0647 1.58949 11.0029 2.55349L11.0001 2.55073Z" fill="black"/>
</svg>
